<?xml version="1.0" encoding="UTF-8" standalone="no"?>
<!-- Created with Inkscape (http://www.inkscape.org/) -->

<svg
   xmlns:dc="http://purl.org/dc/elements/1.1/"
   xmlns:cc="http://creativecommons.org/ns#"
   xmlns:rdf="http://www.w3.org/1999/02/22-rdf-syntax-ns#"
   xmlns:svg="http://www.w3.org/2000/svg"
   xmlns="http://www.w3.org/2000/svg"
   xmlns:xlink="http://www.w3.org/1999/xlink"
   xmlns:sodipodi="http://sodipodi.sourceforge.net/DTD/sodipodi-0.dtd"
   xmlns:inkscape="http://www.inkscape.org/namespaces/inkscape"
   width="1600px"
   height="1200px"
   id="svg3854"
   version="1.1"
   inkscape:version="0.48.2 r9819"
   sodipodi:docname="graphics.svg">
  <defs
     id="defs3856">
    <linearGradient
       inkscape:collect="always"
       id="linearGradient4959">
      <stop
         style="stop-color:#000000;stop-opacity:1;"
         offset="0"
         id="stop4961" />
      <stop
         style="stop-color:#000000;stop-opacity:0;"
         offset="1"
         id="stop4963" />
    </linearGradient>
    <linearGradient
       inkscape:collect="always"
       id="linearGradient4951">
      <stop
         style="stop-color:#000000;stop-opacity:1;"
         offset="0"
         id="stop4953" />
      <stop
         style="stop-color:#000000;stop-opacity:0;"
         offset="1"
         id="stop4955" />
    </linearGradient>
    <pattern
       inkscape:collect="always"
       xlink:href="#pattern6314"
       id="pattern6324"
       patternTransform="matrix(2.4783084,0,0,2.4783084,11.026305,741.05132)" />
    <pattern
       inkscape:collect="always"
       xlink:href="#pattern6308"
       id="pattern6314"
       patternTransform="matrix(2.4783084,0,0,2.4783084,53.452712,760.24421)" />
    <pattern
       inkscape:collect="always"
       xlink:href="#pattern6305"
       id="pattern6308"
       patternTransform="matrix(2.4783084,0,0,2.4783084,30.219203,760.24421)" />
    <pattern
       inkscape:collect="always"
       xlink:href="#pattern6277"
       id="pattern6305"
       patternTransform="matrix(10,0,0,10,-2.5253772,61.114229)" />
    <pattern
       inkscape:collect="always"
       xlink:href="#Strips1_1white"
       id="pattern6277"
       patternTransform="matrix(10,0,0,10,-3.2829916,41.163716)" />
    <pattern
       inkscape:stockid="Stripes 1:1 white"
       id="Strips1_1white"
       patternTransform="translate(0,0) scale(10,10)"
       height="1"
       width="2"
       patternUnits="userSpaceOnUse"
       inkscape:collect="always">
      <rect
         id="rect4756"
         height="2"
         width="1"
         y="-0.5"
         x="0"
         style="fill:white;stroke:none" />
    </pattern>
    <pattern
       inkscape:collect="always"
       xlink:href="#pattern6324"
       id="pattern6343"
       patternTransform="matrix(2.4783084,0,0,2.4783084,59.513627,741.05132)" />
    <pattern
       inkscape:collect="always"
       xlink:href="#pattern6314"
       id="pattern3036"
       patternTransform="matrix(2.4783084,0,0,2.4783084,11.026305,741.05132)" />
    <pattern
       inkscape:collect="always"
       xlink:href="#pattern6308"
       id="pattern3038"
       patternTransform="matrix(2.4783084,0,0,2.4783084,53.452712,760.24421)" />
    <pattern
       inkscape:collect="always"
       xlink:href="#pattern6305"
       id="pattern3040"
       patternTransform="matrix(2.4783084,0,0,2.4783084,30.219203,760.24421)" />
    <pattern
       inkscape:collect="always"
       xlink:href="#pattern6277"
       id="pattern3042"
       patternTransform="matrix(10,0,0,10,-2.5253772,61.114229)" />
    <pattern
       inkscape:collect="always"
       xlink:href="#Strips1_1white"
       id="pattern3044"
       patternTransform="matrix(10,0,0,10,-3.2829916,41.163716)" />
    <pattern
       inkscape:collect="always"
       xlink:href="#pattern6314"
       id="pattern3050"
       patternTransform="matrix(2.4783084,0,0,2.4783084,11.026305,741.05132)" />
    <pattern
       inkscape:collect="always"
       xlink:href="#pattern6308"
       id="pattern3052"
       patternTransform="matrix(2.4783084,0,0,2.4783084,53.452712,760.24421)" />
    <pattern
       inkscape:collect="always"
       xlink:href="#pattern6305"
       id="pattern3054"
       patternTransform="matrix(2.4783084,0,0,2.4783084,30.219203,760.24421)" />
    <pattern
       inkscape:collect="always"
       xlink:href="#pattern6277"
       id="pattern3056"
       patternTransform="matrix(10,0,0,10,-2.5253772,61.114229)" />
    <pattern
       inkscape:collect="always"
       xlink:href="#Strips1_1white"
       id="pattern3058"
       patternTransform="matrix(10,0,0,10,-3.2829916,41.163716)" />
    <pattern
       inkscape:collect="always"
       xlink:href="#pattern6324"
       id="pattern3064"
       patternTransform="matrix(2.4783084,0,0,2.4783084,59.513627,741.05132)" />
    <pattern
       inkscape:collect="always"
       xlink:href="#pattern6314"
       id="pattern3066"
       patternTransform="matrix(2.4783084,0,0,2.4783084,11.026305,741.05132)" />
    <pattern
       inkscape:collect="always"
       xlink:href="#pattern6308"
       id="pattern3068"
       patternTransform="matrix(2.4783084,0,0,2.4783084,53.452712,760.24421)" />
    <pattern
       inkscape:collect="always"
       xlink:href="#pattern6305"
       id="pattern3070"
       patternTransform="matrix(2.4783084,0,0,2.4783084,30.219203,760.24421)" />
    <pattern
       inkscape:collect="always"
       xlink:href="#pattern6277"
       id="pattern3072"
       patternTransform="matrix(10,0,0,10,-2.5253772,61.114229)" />
    <pattern
       inkscape:collect="always"
       xlink:href="#Strips1_1white"
       id="pattern3074"
       patternTransform="matrix(10,0,0,10,-3.2829916,41.163716)" />
    <linearGradient
       inkscape:collect="always"
       xlink:href="#linearGradient4951"
       id="linearGradient4957"
       x1="4772.8456"
       y1="1087.2238"
       x2="5472.3239"
       y2="1087.2238"
       gradientUnits="userSpaceOnUse" />
    <linearGradient
       inkscape:collect="always"
       xlink:href="#linearGradient4959"
       id="linearGradient4965"
       x1="4345.3232"
       y1="1951.6626"
       x2="5305.8115"
       y2="1951.6626"
       gradientUnits="userSpaceOnUse" />
    <linearGradient
       inkscape:collect="always"
       xlink:href="#linearGradient4951"
       id="linearGradient4977"
       gradientUnits="userSpaceOnUse"
       x1="4772.8456"
       y1="1087.2238"
       x2="5472.3239"
       y2="1087.2238" />
    <linearGradient
       inkscape:collect="always"
       xlink:href="#linearGradient4959"
       id="linearGradient4979"
       gradientUnits="userSpaceOnUse"
       x1="4345.3232"
       y1="1951.6626"
       x2="5305.8115"
       y2="1951.6626" />
    <linearGradient
       inkscape:collect="always"
       xlink:href="#linearGradient4959"
       id="linearGradient4986"
       gradientUnits="userSpaceOnUse"
       x1="4345.3232"
       y1="1951.6626"
       x2="5305.8115"
       y2="1951.6626"
       gradientTransform="translate(297.01752,-50)" />
    <linearGradient
       inkscape:collect="always"
       xlink:href="#linearGradient4951"
       id="linearGradient4990"
       gradientUnits="userSpaceOnUse"
       x1="4772.8456"
       y1="1087.2238"
       x2="5472.3239"
       y2="1087.2238"
       gradientTransform="matrix(0.74569765,0,0,0.74569765,1302.6856,212.12047)" />
    <linearGradient
       inkscape:collect="always"
       xlink:href="#linearGradient4951"
       id="linearGradient5059"
       gradientUnits="userSpaceOnUse"
       gradientTransform="matrix(0.74569765,0,0,0.74569765,1302.6856,212.12047)"
       x1="4772.8456"
       y1="1087.2238"
       x2="5472.3239"
       y2="1087.2238" />
    <linearGradient
       inkscape:collect="always"
       xlink:href="#linearGradient4959"
       id="linearGradient5061"
       gradientUnits="userSpaceOnUse"
       gradientTransform="translate(297.01752,-50)"
       x1="4345.3232"
       y1="1951.6626"
       x2="5305.8115"
       y2="1951.6626" />
    <linearGradient
       inkscape:collect="always"
       xlink:href="#linearGradient4959"
       id="linearGradient5072"
       gradientUnits="userSpaceOnUse"
       gradientTransform="translate(297.01752,-50)"
       x1="4345.3232"
       y1="1951.6626"
       x2="5305.8115"
       y2="1951.6626" />
    <linearGradient
       inkscape:collect="always"
       xlink:href="#linearGradient4951"
       id="linearGradient5076"
       gradientUnits="userSpaceOnUse"
       gradientTransform="matrix(0.74569765,0,0,0.74569765,1302.6856,212.12047)"
       x1="4772.8456"
       y1="1087.2238"
       x2="5472.3239"
       y2="1087.2238" />
    <linearGradient
       inkscape:collect="always"
       xlink:href="#linearGradient4951"
       id="linearGradient5207"
       gradientUnits="userSpaceOnUse"
       gradientTransform="matrix(0.74569765,0,0,0.74569765,1302.6856,212.12047)"
       x1="4772.8456"
       y1="1087.2238"
       x2="5472.3239"
       y2="1087.2238" />
    <linearGradient
       inkscape:collect="always"
       xlink:href="#linearGradient4959"
       id="linearGradient5209"
       gradientUnits="userSpaceOnUse"
       gradientTransform="translate(297.01752,-50)"
       x1="4345.3232"
       y1="1951.6626"
       x2="5305.8115"
       y2="1951.6626" />
    <linearGradient
       inkscape:collect="always"
       xlink:href="#linearGradient4951"
       id="linearGradient3842"
       gradientUnits="userSpaceOnUse"
       gradientTransform="matrix(0.74569765,0,0,0.74569765,1302.6856,212.12047)"
       x1="4772.8456"
       y1="1087.2238"
       x2="5472.3239"
       y2="1087.2238" />
    <linearGradient
       inkscape:collect="always"
       xlink:href="#linearGradient4959"
       id="linearGradient3844"
       gradientUnits="userSpaceOnUse"
       gradientTransform="translate(297.01752,-50)"
       x1="4345.3232"
       y1="1951.6626"
       x2="5305.8115"
       y2="1951.6626" />
  </defs>
  <sodipodi:namedview
     id="base"
     pagecolor="#ffffff"
     bordercolor="#666666"
     borderopacity="1.0"
     inkscape:pageopacity="0.0"
     inkscape:pageshadow="2"
     inkscape:zoom="0.5131898"
     inkscape:cx="895.20302"
     inkscape:cy="433.01723"
     inkscape:current-layer="layer1"
     inkscape:document-units="px"
     showgrid="false"
     inkscape:snap-page="false"
     inkscape:window-width="1440"
     inkscape:window-height="784"
     inkscape:window-x="0"
     inkscape:window-y="0"
     inkscape:window-maximized="1"
     showborder="false"
     showguides="true"
     inkscape:guide-bbox="true" />
  <metadata
     id="metadata3859">
    <rdf:RDF>
      <cc:Work
         rdf:about="">
        <dc:format>image/svg+xml</dc:format>
        <dc:type
           rdf:resource="http://purl.org/dc/dcmitype/StillImage" />
        <dc:title></dc:title>
      </cc:Work>
    </rdf:RDF>
  </metadata>
  <g
     id="layer1"
     inkscape:label="Layer 1"
     inkscape:groupmode="layer">
    <flowRoot
       xml:space="preserve"
       id="flowRoot4493"
       style="fill:black;stroke:none;stroke-opacity:1;stroke-width:1px;stroke-linejoin:miter;stroke-linecap:butt;fill-opacity:1;font-family:Futura;font-style:normal;font-weight:500;font-size:40px;line-height:125%;letter-spacing:0px;word-spacing:0px;-inkscape-font-specification:Futura Medium;font-stretch:normal;font-variant:normal"><flowRegion
         id="flowRegion4495"><rect
           id="rect4497"
           width="431.33514"
           height="51.854496"
           x="153.20647"
           y="301.9744" /></flowRegion><flowPara
         id="flowPara4499" /></flowRoot>    <rect
       style="fill:#137a8f;fill-opacity:1;fill-rule:evenodd;stroke:none"
       id="rect3151"
       width="1334"
       height="570.43652"
       x="95.238205"
       y="365.01321"
       inkscape:export-filename="/Users/anivamainali/Desktop/Projects/Libraries/lotech/samples/linerunner/bg.png"
       inkscape:export-xdpi="120"
       inkscape:export-ydpi="120" />
    <path
       style="fill:#000000;fill-opacity:1"
       d="m 95.238205,892.38147 0,-121.9543 11.465755,0 c 6.30622,0 11.46585,0.87167 11.46585,1.93707 0,2.03957 23.99846,25.70687 27.27759,26.90112 1.13149,0.41209 1.90805,-29.47277 1.90805,-73.43325 l 0,-74.1281 6.11438,1.22292 c 5.84202,1.1684 6.14374,0.86436 6.77523,-6.82735 0.53494,-6.51626 1.55467,-8.17719 5.35139,-8.71642 2.94745,-0.41862 4.6906,-2.10951 4.6906,-4.55009 0,-2.13613 1.87623,-4.47937 4.16934,-5.20718 3.96522,-1.25854 4.16942,-3.15423 4.16942,-38.7073 0,-23.53281 0.77235,-37.38388 2.08471,-37.38388 1.31252,0 2.08462,13.89794 2.08462,37.5244 0,36.13461 0.1545,37.52438 4.1694,37.52438 3.05758,0 4.16942,1.38986 4.16942,5.21173 0,5.12425 0.27957,5.21172 16.65285,5.21172 l 16.65285,0 1.33347,8.33883 c 1.30635,8.16955 1.5084,8.33874 9.95581,8.33874 7.62142,0 10.25273,1.47141 22.66518,12.67408 l 14.04274,12.67408 0,112.40725 0,112.4074 7.86569,0 7.86571,0 7.20021,-33.35505 c 3.96005,-18.3453 7.98072,-33.35506 8.93479,-33.35506 0.95407,0 1.12952,-0.97923 0.38987,-2.17595 -0.73966,-1.19691 -0.45193,-3.30762 0.63948,-4.69062 4.54477,-5.75884 5.36915,-19.35892 6.53385,-107.79138 l 1.22181,-92.76867 8.85993,-0.6411 8.85995,-0.64103 0,-11.43022 0,-11.43023 17.19867,0.60548 17.1987,0.6055 0.63543,9.90225 0.63537,9.90225 8.0378,0 8.0378,0 4.14943,-18.241 c 2.2822,-10.03255 6.2996,-28.09123 8.92757,-40.13029 2.62797,-12.03906 5.38323,-22.35831 6.12288,-22.93161 4.31456,-3.34435 6.18992,-24.78249 6.18992,-70.76022 l 0,-50.15177 -7.29643,0 c -5.09594,0 -7.29644,-0.94309 -7.29644,-3.12703 0,-2.18402 2.2005,-3.12701 7.29644,-3.12701 l 7.29643,0 0,-14.78806 c 0,-13.03476 0.49432,-14.91724 4.16932,-15.87826 2.95329,-0.77236 4.16942,-2.84359 4.16942,-7.10124 l 0,-6.01095 29.23774,0 29.23783,0 1.22798,6.14022 c 0.83708,4.18503 2.6459,6.34244 5.68082,6.77523 3.97149,0.56635 4.51938,2.15569 5.06916,14.70669 0.46608,10.63932 1.35596,14.07166 3.6482,14.07166 1.66747,0 3.03174,1.40711 3.03174,3.12702 0,1.7199 -1.40711,3.12701 -3.12701,3.12701 -2.7495,0 -3.12701,17.45165 -3.12701,144.5564 0,79.506 0.6157,157.39484 1.36831,173.08641 l 1.36824,28.53011 4.59379,-4.3156 c 4.02177,-3.77826 6.77145,-4.23962 22.08448,-3.70538 17.28032,0.60283 17.49851,0.67794 18.14066,6.24288 0.61132,5.29799 1.35475,5.66967 12.50815,6.25413 l 11.8582,0.62137 0.56026,47.42663 0.56035,47.42672 26.01948,0 26.01948,0 0,-19.9323 0,-19.93223 -9.90226,1.41364 c -11.44764,1.63432 -10.34207,-1.74231 1.56352,-4.77534 l 7.29643,-1.85879 0.54412,-88.35839 c 0.4157,-67.50599 1.15364,-88.7455 3.12701,-89.9988 1.42059,-0.90222 5.16271,-1.65483 8.31583,-1.67234 4.92262,-0.0275 5.73284,-0.88241 5.73284,-6.0494 0,-4.94118 1.0254,-6.18976 5.73292,-6.98074 3.15311,-0.52978 16.79293,-3.95199 30.31079,-7.60484 13.51785,-3.65293 25.4788,-6.08494 26.57982,-5.40443 1.10102,0.68051 2.00187,4.4653 2.00187,8.41059 0,3.94538 0.93811,7.17343 2.08472,7.17343 1.35225,0 2.0847,-27.10101 2.0847,-77.13356 0,-50.03255 0.73244,-77.1335 2.08471,-77.1335 1.35218,0 2.08462,27.06782 2.08462,77.03401 l 0,77.03408 13.02935,0.62068 c 12.44833,0.59297 13.05846,0.87338 13.68265,6.28846 l 0.65341,5.66795 24.36292,0.58617 24.36284,0.58618 0.57022,35.90397 0.57012,35.90397 29.65783,0.57811 29.65792,0.5781 0.56617,40.1303 0.56618,40.13029 13.50549,0 c 11.83683,0 13.5054,-0.48515 13.5054,-3.92624 0,-4.80195 5.40085,-6.43094 21.44635,-6.4688 l 12.0653,-0.0282 -0.2435,-40.47295 -0.2434,-40.47303 23.6179,-22.2099 23.618,-22.20998 1.0422,-51.45383 1.0424,-51.45382 5.7329,-0.65966 5.7329,-0.65964 0,-63.44456 c 0,-40.90661 0.7405,-63.44458 2.0846,-63.44458 1.3443,0 2.0848,22.58415 2.0848,63.58303 l 0,63.58301 6.2539,0 c 5.7201,0 6.2541,-0.60386 6.2541,-7.07334 0,-7.93103 2.4474,-9.58681 14.2422,-9.63607 9.5763,-0.0404 12.2462,-1.72395 13.1698,-8.30682 0.6115,-4.35748 2.0128,-5.31782 8.5491,-5.85876 5.9699,-0.49408 7.8174,0.12171 7.8174,2.60582 0,1.78918 0.9382,3.25294 2.0847,3.25294 1.1465,0 2.0847,2.23587 2.0847,4.96856 0,3.21533 1.4713,5.35335 4.1694,6.05892 3.2899,0.86034 4.1694,2.84359 4.1694,9.40123 0,5.46434 1.0709,8.72183 3.1271,9.51084 2.7394,1.05124 3.1269,19.80785 3.1269,151.36303 l 0,150.16313 15.4705,0 15.4704,0 0.8727,-16.15637 c 0.4801,-8.88596 0.7886,-62.34818 0.6859,-118.80471 -0.2005,-110.24451 -0.7435,-104.77828 10.4071,-104.77828 3.9276,0 5.0413,-1.10222 5.0413,-4.98873 0,-5.61077 3.421,-7.51943 13.4778,-7.51943 5.1295,0 7.1605,-1.06206 7.9732,-4.16932 0.7939,-3.03596 2.8435,-4.16943 7.5395,-4.16943 5.9807,0 6.4491,-0.53003 6.4491,-7.29643 0,-5.09585 0.9432,-7.29642 3.1272,-7.29642 2.184,0 3.127,2.20057 3.127,7.29642 l 0,7.29643 16.8727,0 c 15.1195,0 16.986,0.43323 17.9631,4.16943 0.5996,2.29311 2.388,4.16932 3.974,4.16932 2.3172,0 2.884,-5.6931 2.884,-28.96264 0,-32.33009 -0.4181,-31.46761 15.2845,-31.52529 6.3783,-0.0232 7.8577,-0.56935 5.5624,-2.05278 -1.7198,-1.1114 -6.7015,-2.03517 -11.0705,-2.05277 -7.8995,-0.0318 -7.9399,-0.0755 -7.2963,-7.84948 0.6407,-7.74226 0.7423,-7.82371 10.5492,-8.45299 9.428,-0.60497 9.9022,-0.92943 9.9022,-6.77523 0,-5.15937 0.8322,-6.13988 5.2117,-6.13988 l 5.2119,0 0,-52.11726 c 0,-33.35496 0.7505,-52.11725 2.0847,-52.11725 1.3342,0 2.0845,18.76229 2.0845,52.11725 0,49.00587 0.2266,52.11726 3.7936,52.11726 2.0864,0 5.9362,2.46436 8.5549,5.47628 3.8415,4.418 4.2162,5.85121 1.9395,7.41652 -1.77,1.2169 12.1387,1.67132 37.3082,1.21905 l 40.1304,-0.72121 -0.031,5.29165 c -0.051,8.29899 -2.8858,10.87442 -13.2606,12.04386 -12.0749,1.36102 -12.5173,4.26564 -0.7791,5.11491 l 8.8598,0.64103 1.0424,82.98399 1.0424,82.98409 12.5081,11.89906 c 6.8795,6.54443 22.295,21.04862 34.2568,32.23147 14.8514,13.88446 21.071,21.01007 19.612,22.46911 -1.4591,1.45905 -2.983,1.11691 -4.8053,-1.07879 -4.8348,-5.82571 -6.3273,-3.38787 -6.3273,10.33513 l 0,13.55047 14.5928,0 14.5928,0 0,-19.80458 0,-19.80452 23.974,0 23.9739,0 0,120.912 0,120.91201 -667.10068,0 -667.100825,0 0,-121.95432 z M 178.62581,633.87993 c 0,-1.71982 -0.9381,-3.12703 -2.08472,-3.12703 -1.1466,0 -2.0847,1.40721 -2.0847,3.12703 0,1.7199 0.9381,3.12701 2.0847,3.12701 1.14662,0 2.08472,-1.40711 2.08472,-3.12701 z"
       id="path3850"
       inkscape:connector-curvature="0"
       inkscape:export-filename="/Users/anivamainali/Desktop/Projects/Libraries/lotech/samples/linerunner/bg.png"
       inkscape:export-xdpi="120"
       inkscape:export-ydpi="120" />
    <flowRoot
       xml:space="preserve"
       id="flowRoot3169"
       style="fill:black;stroke:none;stroke-opacity:1;stroke-width:1px;stroke-linejoin:miter;stroke-linecap:butt;fill-opacity:1;font-family:Futura;font-style:normal;font-weight:500;font-size:40px;line-height:125%;letter-spacing:0px;word-spacing:0px;-inkscape-font-specification:Futura Medium;font-stretch:normal;font-variant:normal"><flowRegion
         id="flowRegion3171"><rect
           id="rect3173"
           width="1647.9277"
           height="1027.8881"
           x="-5.5114636"
           y="-40.079365" /></flowRegion><flowPara
         id="flowPara3175" /></flowRoot>    <rect
       style="fill:#e4e4d4;fill-opacity:1;fill-rule:evenodd;stroke:none"
       id="rect3181"
       width="1339.2856"
       height="41.335979"
       x="93.69487"
       y="859.82239"
       inkscape:export-filename="/Users/anivamainali/Desktop/Projects/Libraries/lotech/samples/linerunner/ground.png"
       inkscape:export-xdpi="120"
       inkscape:export-ydpi="120" />
    <rect
       inkscape:export-ydpi="120"
       inkscape:export-xdpi="120"
       inkscape:export-filename="/Users/anivamainali/Desktop/Projects/Libraries/lotech/samples/linerunner/block.png"
       y="795.18188"
       x="377.53522"
       height="66.773468"
       width="77.160423"
       id="rect3970"
       style="fill:#e4e4d4;fill-opacity:1;fill-rule:evenodd;stroke:none" />
    <rect
       style="fill:#e4e4d4;fill-opacity:1;fill-rule:evenodd;stroke:none"
       id="rect3972"
       width="77.160423"
       height="66.773468"
       x="533.42297"
       y="658.7287"
       inkscape:export-filename="/Users/anivamainali/Desktop/Projects/Libraries/lotech/samples/linerunner/ground.png"
       inkscape:export-xdpi="120"
       inkscape:export-ydpi="120" />
    <rect
       inkscape:export-ydpi="120"
       inkscape:export-xdpi="120"
       inkscape:export-filename="/Users/anivamainali/Desktop/Projects/Libraries/lotech/samples/linerunner/ground.png"
       y="795.13049"
       x="730.23126"
       height="66.773468"
       width="77.160423"
       id="rect3049"
       style="fill:#e4e4d4;fill-opacity:1;fill-rule:evenodd;stroke:none" />
    <path
       style="fill:#f9f9f9"
       d="m -460.98921,1278.248 c -0.42552,-0.4254 -0.7813,-3.3097 -0.79061,-6.4095 -0.0111,-3.3314 -0.38605,-5.0542 -0.91967,-4.2133 -0.88108,1.3887 -14.60713,1.6565 -14.56821,0.2841 0.0643,-2.2646 2.36098,-3.5259 5.87023,-3.2235 2.1847,0.1882 4.20852,0.1053 4.49745,-0.183 0.28881,-0.2888 0.15998,-3.622 -0.28627,-7.4071 -0.81512,-6.9132 -0.32296,-8.9802 3.06922,-12.8898 0.97355,-1.1221 1.7768,-2.8684 1.785,-3.8805 0.0111,-1.0962 0.91147,-1.8403 2.23226,-1.8403 1.5962,0 2.1184,0.6213 1.86384,2.2174 -1.09008,6.8371 -0.8792,11.8761 0.51976,12.4129 2.08801,0.8012 1.87381,2.5545 -0.3121,2.5545 -1.50939,0 -1.68212,0.7806 -1.04262,4.712 0.42163,2.5916 0.86567,7.1026 0.98674,10.0244 0.13703,3.3052 0.84516,5.7076 1.87415,6.3581 0.94827,0.5996 1.10127,1.0528 0.35855,1.0626 -0.71234,0.011 -1.98568,0.2819 -2.82963,0.6058 -0.84394,0.3238 -1.88257,0.2407 -2.30809,-0.1848 z"
       id="path3356"
       inkscape:connector-curvature="0" />
    <path
       style="fill:#f9f9f9"
       d="m -441.14103,1277.2876 c -2.05265,-1.5536 -2.03136,-1.7622 0.83152,-8.1414 2.26863,-5.0551 2.93806,-8.3031 2.93806,-14.2531 0,-6.7865 0.33084,-8.017 2.77175,-10.3102 1.52446,-1.4321 2.77175,-3.5148 2.77175,-4.628 0,-1.285 0.8098,-2.0242 2.2174,-2.0242 2.33537,0 3.07188,3.1119 1.19407,5.0446 -0.56288,0.5793 -0.75214,2.4364 -0.42042,4.1268 0.48805,2.4879 0.89938,2.8275 2.15887,1.7823 2.90024,-2.407 2.86454,-0.019 -0.0432,2.8883 -3.4872,3.4871 -3.54064,4.3779 -0.59316,9.8773 2.58582,4.8246 2.34346,5.2439 -4.22204,7.3043 -5.50836,1.7286 -8.94333,5.926 -6.88215,8.4095 1.69277,2.0396 0.0111,1.9926 -2.72252,-0.077 z"
       id="path3354"
       inkscape:connector-curvature="0" />
    <path
       style="fill:#f9f9f9"
       d="m -431.82795,1263.4308 c 0,-0.6097 -0.21996,-1.1087 -0.48882,-1.1087 -0.26897,0 -0.79727,0.499 -1.17423,1.1087 -0.37685,0.6098 -0.15677,1.1087 0.48894,1.1087 0.64582,0 1.17411,-0.4989 1.17411,-1.1087 z"
       id="path3352"
       inkscape:connector-curvature="0" />
    <path
       style="fill:#f9f9f9"
       d="m -260.36761,1278.1127 c -0.28552,-0.462 -0.85744,-2.8318 -1.27093,-5.2663 -1.10569,-6.5098 -1.70563,-8.3069 -2.77321,-8.3069 -0.52627,0 -1.1163,1.1226 -1.31116,2.4946 -0.32011,2.254 -0.86597,2.4579 -5.65986,2.1142 -3.31278,-0.2375 -5.99345,0.1789 -7.13696,1.1087 -1.59802,1.2994 -1.73429,1.2303 -1.06945,-0.5418 0.41907,-1.117 0.76193,-2.4891 0.76193,-3.0489 0,-0.5599 2.24512,-1.0181 4.98916,-1.0181 l 4.98915,0 0.2031,-5.2663 c 0.1117,-2.8965 0.13206,-6.4651 0.0452,-7.9304 -0.0868,-1.4653 0.94357,-4.2093 2.28976,-6.0979 1.34619,-1.8885 2.51075,-3.8079 2.58793,-4.2652 0.0772,-0.4574 0.20267,-1.3305 0.27889,-1.9403 0.2173,-1.7383 3.46209,-1.2968 4.17787,0.5685 0.35398,0.9224 0.10977,2.3205 -0.54274,3.1067 -1.48018,1.7834 -0.36377,6.4265 1.96218,8.1605 1.52011,1.1334 1.35059,1.4548 -1.30109,2.4671 -3.56316,1.3605 -3.47468,0.9467 -1.49721,7.001 0.85343,2.6129 1.88184,7.1205 2.28533,10.017 0.50316,3.6121 1.25526,5.2663 2.39417,5.2663 0.9133,0 1.3522,0.499 0.97533,1.1087 -0.80241,1.2983 -4.62308,1.4894 -5.37741,0.2688 z"
       id="path3350"
       inkscape:connector-curvature="0" />
    <path
       style="fill:#f9f9f9"
       d="m -415.20387,1276.1731 c -1.14163,-1.3756 -0.82288,-2.5017 1.80452,-6.375 4.86841,-7.1768 6.82039,-12.8314 6.23178,-18.0532 -0.46942,-4.165 -0.18582,-4.8528 2.91123,-7.0581 1.88723,-1.3438 3.38142,-2.79 3.32044,-3.2138 -0.32717,-2.2716 0.33627,-3.5423 1.84943,-3.5423 2.3143,0 3.2894,2.9876 1.62824,4.9892 -1.71971,2.0721 -0.61489,5.1556 1.54963,4.3249 1.31724,-0.5054 1.46204,-0.019 0.74781,2.5133 -0.48716,1.7271 -1.4055,3.0311 -2.04078,2.8979 -2.53516,-0.5314 -2.05852,2.8155 1.05027,7.3748 l 3.28142,4.8124 -3.82291,4.0058 c -2.19977,2.305 -3.57578,4.7119 -3.24084,5.6688 0.42574,1.2167 -0.0499,1.1025 -1.77126,-0.4253 -2.49258,-2.2121 -2.33681,-3.0437 1.33366,-7.1168 1.96317,-2.1785 2.06096,-2.7045 0.66655,-3.5863 -2.9099,-1.8402 -3.88533,-1.1762 -8.56361,5.8295 -3.27643,4.9066 -4.22082,7.1413 -3.27277,7.744 0.92876,0.5902 0.78574,0.8522 -0.47164,0.8641 -0.99251,0.011 -2.4285,-0.7349 -3.19117,-1.6539 z"
       id="path3338"
       inkscape:connector-curvature="0" />
    <path
       style="fill:#f9f9f9"
       d="m -294.89285,1269.7989 c -3.59381,-7.7478 -3.76471,-7.9276 -4.84609,-5.0959 -0.95214,2.4932 -2.00803,3.0544 -7.0123,3.7274 -3.24026,0.4357 -6.51501,1.2964 -7.27724,1.9125 -1.66886,1.3491 -1.72722,0.7823 -0.30462,-2.9594 0.90926,-2.3915 1.77921,-2.844 5.46879,-2.844 5.24295,0 6.11972,-1.678 5.96134,-11.409 -0.0944,-5.7959 0.19567,-6.6418 2.98334,-8.7029 2.08088,-1.5384 2.90816,-2.97 2.53685,-4.3899 -0.42067,-1.6086 0.0384,-2.107 1.94078,-2.107 2.21851,0 2.42415,0.4168 1.87513,3.8 -0.81241,5.0062 0.1206,8.4052 2.09882,7.646 2.77701,-1.0655 1.63774,1.8678 -1.23347,3.1759 -2.44627,1.1147 -2.69883,1.7414 -2.06435,5.1236 0.39762,2.1194 1.79999,6.6342 3.11638,10.0327 1.78347,4.6044 3.08661,6.3618 5.11327,6.8958 2.28965,0.6033 2.41294,0.8285 0.7796,1.4236 -5.33957,1.9456 -5.34642,1.9409 -9.13623,-6.2294 z"
       id="path3336"
       inkscape:connector-curvature="0" />
    <path
       style="fill:#f9f9f9"
       d="m -383.04513,1275.6547 c 0,-0.5255 -0.27097,-1.6618 -0.60236,-2.5252 -0.37452,-0.9762 1.06336,-2.7239 3.80318,-4.6227 5.08139,-3.5213 9.31818,-11.237 7.76999,-14.1499 -2.03735,-3.8333 -1.14628,-7.2238 2.27073,-8.6392 1.92581,-0.7977 3.4026,-2.325 3.60328,-3.7265 0.44226,-3.088 3.75661,-3.7368 4.50332,-0.8815 0.31321,1.1976 0.0787,2.6683 -0.5212,3.2681 -0.59981,0.5998 -0.73696,2.2046 -0.30489,3.5662 0.62065,1.9552 1.00182,2.1534 1.81416,0.943 0.72232,-1.0762 0.93375,-0.5422 0.71035,1.7938 -0.19059,1.9918 -0.88652,3.2108 -1.7349,3.0386 -2.97908,-0.6045 -2.55766,3.0786 0.7568,6.6152 3.8187,4.0744 3.9442,4.6211 2.20643,9.6062 -0.92832,2.663 -0.89539,3.912 0.13581,5.1546 1.14529,1.3801 0.87576,1.6398 -1.70097,1.6398 -3.01123,0 -3.05136,-0.09 -2.42339,-5.3919 0.39979,-3.3749 0.16719,-5.8634 -0.62165,-6.6522 -2.17062,-2.1706 -5.89762,-1.4246 -7.45912,1.4931 -0.81046,1.5144 -2.27749,3.0086 -3.26013,3.3204 -0.98264,0.3119 -3.39728,2.0383 -5.366,3.8364 -1.96872,1.7981 -3.57944,2.8392 -3.57944,2.3137 z"
       id="path3330"
       inkscape:connector-curvature="0" />
    <path
       style="fill:#f9f9f9"
       d="m -328.29545,1272.5776 c -4.68897,-11.088 -6.01398,-12.198 -8.59725,-7.2028 -1.14185,2.2081 -3.12998,3.6572 -6.44,4.6939 -2.63361,0.8248 -5.41201,2.2587 -6.17424,3.1863 -1.17412,1.429 -1.38588,1.1683 -1.38588,-1.7073 0,-3.0657 0.47253,-3.5262 4.8866,-4.762 4.44023,-1.2432 4.9917,-1.788 6.03665,-5.9648 0.63252,-2.5281 0.86423,-6.7036 0.51499,-9.2787 -0.59193,-4.3637 -0.39979,-4.816 2.82597,-6.6522 2.31153,-1.3158 3.46336,-2.8256 3.46801,-4.546 0,-1.8481 0.55163,-2.4709 1.93453,-2.2046 2.20766,0.4251 3.30977,4.1536 1.54938,5.2417 -1.33661,0.826 -0.40871,5.6366 1.08723,5.6366 0.53867,0 0.9794,-0.5987 0.9794,-1.3304 0,-0.9621 0.33532,-0.9951 1.21141,-0.1191 1.55762,1.5577 -0.58462,5.8843 -2.91347,5.8843 -2.23681,0 -2.0328,2.8208 0.55042,7.61 1.19595,2.2172 2.72315,6.1935 3.39377,8.8361 0.87501,3.4478 1.66984,4.6317 2.8147,4.1924 0.87745,-0.3367 1.59537,-0.1824 1.59537,0.343 0,0.9657 -2.63682,2.3012 -4.54342,2.3012 -0.56978,0 -1.82715,-1.8709 -2.79417,-4.1576 z"
       id="path3328"
       inkscape:connector-curvature="0" />
    <rect
       style="fill:#e4e4d4;fill-opacity:1;fill-rule:evenodd;stroke:none"
       id="rect3119"
       width="124.11275"
       height="53.802044"
       x="725.82764"
       y="481.15796"
       inkscape:export-filename="/Users/anivamainali/Desktop/Projects/Libraries/lotech/samples/linerunner/btn.png"
       inkscape:export-xdpi="120"
       inkscape:export-ydpi="120" />
  </g>
</svg>
